<svg width="1200" height="700" viewBox="0 0 1200 700" fill="none" xmlns="http://www.w3.org/2000/svg">
  <defs>
    <linearGradient id="bg" x1="0" y1="0" x2="1200" y2="700" gradientUnits="userSpaceOnUse">
      <stop stop-color="#18212E"/>
      <stop offset="1" stop-color="#10151F"/>
    </linearGradient>
    <linearGradient id="accent" x1="0" y1="0" x2="1" y2="1">
      <stop stop-color="#D3F702"/>
      <stop offset="1" stop-color="#23A094"/>
    </linearGradient>
  </defs>

  <rect width="1200" height="700" rx="40" fill="url(#bg)"/>
  <circle cx="1040" cy="100" r="160" fill="#D3F702" fill-opacity="0.14"/>
  <circle cx="180" cy="620" r="180" fill="#23A094" fill-opacity="0.16"/>

  <rect x="88" y="88" width="1024" height="524" rx="28" fill="#0F141D" stroke="#FFFFFF" stroke-opacity="0.12"/>
  <rect x="124" y="126" width="292" height="448" rx="20" fill="#141B27" stroke="#FFFFFF" stroke-opacity="0.08"/>
  <rect x="152" y="168" width="236" height="18" rx="9" fill="#6F7176" fill-opacity="0.45"/>
  <rect x="152" y="204" width="164" height="14" rx="7" fill="#6F7176" fill-opacity="0.3"/>

  <rect x="152" y="252" width="236" height="88" rx="16" fill="url(#accent)" fill-opacity="0.85"/>
  <rect x="152" y="360" width="236" height="64" rx="14" fill="#1D1F27"/>
  <rect x="152" y="438" width="236" height="64" rx="14" fill="#1D1F27"/>

  <rect x="444" y="126" width="632" height="70" rx="18" fill="#141B27"/>
  <rect x="474" y="152" width="240" height="16" rx="8" fill="#9C9DA1" fill-opacity="0.55"/>
  <rect x="444" y="224" width="408" height="350" rx="20" fill="#141B27"/>
  <rect x="872" y="224" width="204" height="164" rx="20" fill="#141B27"/>
  <rect x="872" y="410" width="204" height="164" rx="20" fill="#141B27"/>

  <rect x="480" y="266" width="90" height="250" rx="12" fill="#23A094" fill-opacity="0.5"/>
  <rect x="590" y="312" width="90" height="204" rx="12" fill="#D3F702" fill-opacity="0.65"/>
  <rect x="700" y="286" width="90" height="230" rx="12" fill="#FF90E8" fill-opacity="0.55"/>

  <text x="124" y="660" fill="#B5B6B9" font-family="Figtree, sans-serif" font-size="28" letter-spacing="1.5">
    KurlClub Product Preview
  </text>
</svg>
